# xmcd
#
# Track frame offsets:
#	150
#	13085
#	33157
#	45022
#	58452
#	73177
#	95542
#	111655
#	127697
#	145167
#	160860
#	175090
#	193847
#	219670
#	236127
#	259290
#	276590
#	297800
#
# Disc length: 3970 seconds
#
# Revision: 0
# Processed by: cddbd v1.5.1PL0 Copyright (c) Steve Scherf et al.
# Submitted via: dBpowerAMP V4.0
#
DISCID=160f8012
DTITLE=Various Artist - Excursions
DYEAR=2002
DGENRE=
TTITLE0=He Took Her To A Movie - Ladytron
TTITLE1=Now That The Love Has Gone (From Loneliness To Happiness Mix By Les Rythms Digitales) - We In Music
TTITLE2=Champu - Daniel Diamond
TTITLE3=Missy Queen's Gonna Die (Original Mix) - Tok Tok Vs. Soffy O
TTITLE4=Treat Me Better - Northern Lite
TTITLE5=Substance (Felix Da Housecat Mix) - Dot Allison
TTITLE6=Take A Walk (Youngsters Bass Remix) - Bolz Bolz
TTITLE7=Silver Screen - Shower Scene (Phunk Remix) - Felix Da Housecat
TTITLE8=Gas 126 - Kiki
TTITLE9=Dirty Breaks Federation - User 010
TTITLE10=Over The Hill (Original Mix) - Tim Taylor Vs. Thor 54
TTITLE11=Ticket To Thrillville - Jeff Mills
TTITLE12=Flexibility - Miss Kittin and The Hacker
TTITLE13=Thee Underground Made Me Do It - Aphrohead
TTITLE14=What Does It Feel Like? - Felix Da Housecat
TTITLE15=It's Automatic (Paper Faces Remix) - Zoot Woman
TTITLE16=Playgirl (Felix Da Housecat Glitz Clubhead Mix) - Ladytron
TTITLE17=In Flight (Raw Cluc Mix) - Archigram
EXTD=
EXTT0=
EXTT1=
EXTT2=
EXTT3=
EXTT4=
EXTT5=
EXTT6=
EXTT7=
EXTT8=
EXTT9=
EXTT10=
EXTT11=
EXTT12=
EXTT13=
EXTT14=
EXTT15=
EXTT16=
EXTT17=
PLAYORDER=
